<?xml version="1.0" encoding="utf-8"?>
<!-- Generator: Adobe Illustrator 19.2.1, SVG Export Plug-In . SVG Version: 6.00 Build 0)  -->
<!DOCTYPE svg PUBLIC "-//W3C//DTD SVG 1.1//EN" "http://www.w3.org/Graphics/SVG/1.1/DTD/svg11.dtd">
<svg version="1.1" id="Layer_1" xmlns="http://www.w3.org/2000/svg" xmlns:xlink="http://www.w3.org/1999/xlink" x="0px" y="0px"
	 viewBox="0 0 212.3 136.2" style="enable-background:new 0 0 212.3 136.2;" xml:space="preserve">
<style type="text/css">
	.st0{fill:#4D4D4D;}
	.st1{fill:#231F20;}
	.st2{fill:url(#SVGID_1_);}
	.st3{fill-rule:evenodd;clip-rule:evenodd;fill:#646464;}
</style>
<path class="st0" d="M131.3,66.5c1.2,0.3,2,1.3,1.8,2.2c-0.2,0.9-1.4,1.3-2.6,1c-1.2-0.3-2-1.3-1.8-2.2S130.1,66.1,131.3,66.5"/>
<g>
	<path class="st1" d="M137.3,51.9C137.1,51.9,137.1,51.9,137.3,51.9L137.3,51.9z"/>
	<path class="st0" d="M140.8,54.7c18.2-1.8,30.8-9.6,30.8-29.3c0-3.1-0.1-5.9,2.6-8c4.2-3.4-3.3-3.5,0.6-6c2.5-1.7-5.5-1.2-7.5,0.7
		c-2.6,2.7-3.6,5.2-3.6,9.3c0,5.9-2.1,11.4-6.5,14.7c-4.9,3.6-8.8,1.7-11.9,0.7l-9.3-3.3c-8-1.6-14.3-10.1-23.5,4.1
		c-1.7-0.7-3.5-1.2-5.3-1.2v-4.4c1.2,0.1,2.4,0.2,3.5,0.5c8.1-10.7,14.6-7.9,21.5-4.9c0.1,0,0.1,0.1,0.2,0.1
		c0.7,0.3,1.5,0.7,2.2,0.9c4.1,1.5,8,3,12,4.7c2.5,1.1,5,1.5,8-0.7c2-1.5,3.5-4.4,4.2-7.6c0.2-0.7,0.3-1.4,0.4-2.1
		c0.1-0.7,0.1,0,0.1-0.7c0-0.4,0-0.6,0-0.8c-0.1-3.3,0.5-6.3,1.7-8.7c2-3.8,5.1-5.7,8.8-6.4c2.9-0.4,9.8-0.7,10.1,3.3
		c0,0.7-0.1,1-0.2,1.1l-0.1,0.1c-1.9,1.2-0.3,1.2,0.6,3.1c1.1,2.2,0.3,4.1-3.3,7c-1,0.8-1,2.5-1,4.4c0.1,22.4-13.3,30.6-33.2,33.7
		c-4.8,4.7-8.6,15.3-11.2,21.6c-2.4,5.9-3,12.7-3.6,23.1c-0.1,2.2-0.1,4.3-0.2,6.4c-0.1,3.3-0.3,6.7-0.3,10.4
		c0,6.7-7.5,8.8-15.8,8.8c-1.5,0-3-0.1-4.6-0.2v-4.3c7.5,0.6,15.9-0.1,15.9-4.3l0.7-15.7l0,0l0,0l0.4-9.2l0.4-2.9l0,0
		c0.5-5,1.3-9.3,2.7-13.1C131,69.4,134.4,60.9,140.8,54.7L140.8,54.7z M107.1,71.3V75c7.9,1.4,16.7,0.6,23.8-4.7
		C121.4,73.9,113.4,73.2,107.1,71.3z M107.1,36.4C92.4,35.3,77.2,53.7,97.7,67c0.2,0.1,0.4,0.2,0.6,0.3c2.3,1.4,5.3,3,8.8,4.1V75
		c-6.2-1.1-11.9-3.5-15.7-6.1c-2.5-1.7-4.6-5-6.1-8.5l-6.9,0.3l0,0c-11.2,0.8-17.5,3.8-22.9,8.5c-2.5-1-6.3-2.8-11.2,0.6
		c-4.6,3.2-2.4,5.4-3.7,9.8c-0.4,1.3-1.7,2.8-1.9,3.3c0,0,2,1.5,2.2,1.2c0.7-1,1.5-4.1,1.6-5.5c0.5-6.7,3-6.1,8.3-3.9
		c-7.5,11.7-5.6,29.3-4.2,46.8c8.9,3.9,17.8,3.9,26.7,0c-9.8-36.8,32.4-28.5,22.7,0.8c-0.3,0.7,5.1,2,11.1,2.5v4.3
		c-1.5-0.1-2.9-0.2-4.3-0.4c-2.8-0.4-5.3-0.9-6.8-1.4c-3.5-1.2-5.1-3.3-4.1-6.4c0,0,0.1-0.1,0.1-0.1c2.5-7.6,0.8-13.2-2.5-16.4
		c-1.7-1.7-3.8-2.7-5.9-2.9c-1.8-0.1-3.6,0.4-4.9,1.8c-2.5,2.7-3.5,8.1-1.2,17.2c0.6,2.2-0.5,4.3-2.5,5.2c-1.4,0.6-2.8,1.1-4.2,1.5
		c-1.3,0.4-2.8,0.8-4.2,1.1c-7.3,1.4-14.6,0.5-21.8-2.7c-1.5-0.7-2.5-2.1-2.6-3.6l0,0l-0.2-2.6c-0.9-10.7-1.8-21.3-0.5-30.7
		c-0.7,0.1-1.3,0-2-0.2h-0.1l0,0c-0.4-0.1-0.9-0.4-1.4-0.6c-0.2-0.1-0.5-0.3-0.8-0.5c-0.5-0.3-0.9-0.7-1.2-1.2
		c-1.2-1.4-1.8-3.5-1.7-4.3l0,0l0,0h0.1v-0.1l0,0l0,0c0.2-0.9,0.7-1.5,1.2-2.2c0.4-0.4,0.7-1,0.7-1.1c0.3-0.9,0.3-1.9,0.4-2.8
		c0.1-3.4,0.2-5.9,5-9.3c5.4-3.8,9.7-3.2,13-2c3-2.3,6.4-4.1,10.6-5.5c4.7-1.5,10.4-2.4,17.7-2.5l0,0l0,0c0.2,0,0.5,0,0.8,0
		c-0.4-1.3-0.5-2.6-0.5-3.7c-0.1-3.3,0.9-6.4,2.5-9.3c1.5-2.7,3.8-5,6.4-6.8c4.2-3,9.6-4.7,14.8-4.4V36.4z"/>
	<linearGradient id="SVGID_1_" gradientUnits="userSpaceOnUse" x1="148.378" y1="87.6912" x2="69.204" y2="41.98">
		<stop  offset="0" style="stop-color:#EAEAEA"/>
		<stop  offset="1" style="stop-color:#FFFFFF"/>
	</linearGradient>
	<path class="st2" d="M140.8,54.7c18.2-1.8,30.8-9.6,30.8-29.3c0-3.1-0.1-5.9,2.6-8c4.2-3.4-3.3-3.5,0.6-6c2.5-1.7-5.5-1.2-7.5,0.7
		c-2.6,2.7-3.6,5.2-3.6,9.3c0,5.9-2.1,11.4-6.5,14.7c-4.9,3.6-8.8,1.7-11.9,0.7l-9.3-3.3c-8-1.6-14.3-10.1-23.5,4.1
		C96.7,30.8,74.7,52.1,97.7,67c0.2,0.1,0.4,0.2,0.6,0.3c6.3,3.9,17.7,8.6,32.6,3c-12.9,9.6-31.1,4.3-39.5-1.4
		c-2.5-1.7-4.6-5-6.1-8.5l-6.9,0.3l0,0c-11.2,0.8-17.5,3.8-22.9,8.5c-2.5-1-6.3-2.8-11.2,0.6c-4.6,3.2-2.4,5.4-3.7,9.8
		c-0.4,1.3-1.7,2.8-1.9,3.3c0,0,2,1.5,2.2,1.2c0.7-1,1.5-4.1,1.6-5.5c0.5-6.7,3-6.1,8.3-3.9c-7.5,11.7-5.6,29.3-4.2,46.8
		c8.9,3.9,17.8,3.9,26.7,0c-9.8-36.8,32.4-28.5,22.7,0.8c-0.6,1.7,27,5.8,27-1.8l0.7-15.7l0,0l0,0l0.4-9.2l0.4-2.9l0,0
		c0.5-5,1.3-9.3,2.7-13.1C131,69.4,134.4,60.9,140.8,54.7z"/>
	<path class="st3" d="M125.4,36.6c1.1-0.7,2.3-0.7,2.8,0.1c0.5,0.8,0,2-1.1,2.6c-1.1,0.7-2.3,0.7-2.8-0.1
		C123.9,38.5,124.3,37.3,125.4,36.6z"/>
</g>
</svg>
